<svg xmlns="http://www.w3.org/2000/svg" xmlns:xlink="http://www.w3.org/1999/xlink" width="500" zoomAndPan="magnify" viewBox="0 0 375 374.999991" height="500" preserveAspectRatio="xMidYMid meet" version="1.0"><defs><g/><clipPath id="4a391fed5f"><path d="M 3.28125 158 L 346 158 L 346 198 L 3.28125 198 Z M 3.28125 158 " clip-rule="nonzero"/></clipPath><clipPath id="42e0d9b7b4"><path d="M 3.28125 210 L 346 210 L 346 251 L 3.28125 251 Z M 3.28125 210 " clip-rule="nonzero"/></clipPath><clipPath id="f093cfbf8e"><path d="M 338 7 L 371.53125 7 L 371.53125 73 L 338 73 Z M 338 7 " clip-rule="nonzero"/></clipPath></defs><rect x="-37.5" width="450" fill="#ffffff" y="-37.499999" height="449.999989" fill-opacity="1"/><rect x="-37.5" width="450" fill="#ffffff" y="-37.499999" height="449.999989" fill-opacity="1"/><g clip-path="url(#4a391fed5f)"><path fill="#ff9900" d="M 3.894531 196.960938 C 4.097656 197.292969 4.484375 197.679688 5.203125 197.679688 L 343.527344 197.679688 C 344.21875 197.679688 344.628906 197.292969 344.835938 196.960938 C 345.066406 196.628906 345.273438 196.0625 344.964844 195.371094 L 329.160156 160.582031 C 328.519531 159.199219 327.082031 158.273438 325.542969 158.273438 L 246.605469 158.273438 L 246.605469 171.410156 L 266.308594 171.410156 C 269.925781 171.410156 272.875 174.359375 272.875 177.976562 C 272.875 181.59375 269.925781 184.542969 266.308594 184.542969 L 82.421875 184.542969 C 78.804688 184.542969 75.855469 181.59375 75.855469 177.976562 C 75.855469 174.359375 78.804688 171.410156 82.421875 171.410156 L 102.125 171.410156 L 102.125 158.273438 L 23.1875 158.273438 C 21.648438 158.273438 20.234375 159.199219 19.570312 160.609375 L 3.742188 195.421875 C 3.457031 196.0625 3.664062 196.628906 3.894531 196.960938 " fill-opacity="1" fill-rule="nonzero"/></g><path fill="#ff9900" d="M 187.5 26.925781 L 253.175781 26.925781 C 259.742188 26.925781 265.410156 29.75 269.464844 35.828125 C 271.566406 38.984375 272.671875 42.679688 272.671875 46.5 C 272.671875 54.503906 267.644531 61.738281 260.179688 64.484375 L 218.257812 79.851562 C 216.078125 80.644531 214.410156 82.238281 213.566406 84.390625 C 212.691406 86.570312 212.769531 89.035156 213.820312 91.136719 C 215.589844 94.652344 219.363281 96.679688 223.75 95.089844 L 283.753906 73.105469 C 284.191406 72.949219 284.652344 72.820312 285.113281 72.769531 L 325.414062 67.175781 L 325.414062 12.867188 L 246.402344 0.863281 C 242.886719 0.324219 239.296875 0.835938 235.960938 2.324219 L 187.5 26.925781 " fill-opacity="1" fill-rule="nonzero"/><path fill="#ff9900" d="M 23.3125 368.433594 C 23.3125 372.050781 26.265625 375 29.882812 375 L 318.847656 375 C 322.464844 375 325.414062 372.050781 325.414062 368.433594 L 325.414062 263.355469 L 23.3125 263.355469 L 23.3125 368.433594 " fill-opacity="1" fill-rule="nonzero"/><g clip-path="url(#42e0d9b7b4)"><path fill="#ff9900" d="M 3.613281 250.21875 L 345.117188 250.21875 L 345.117188 210.609375 C 344.578125 210.660156 344.09375 210.8125 343.527344 210.8125 L 5.203125 210.8125 C 4.664062 210.8125 4.152344 210.660156 3.613281 210.609375 L 3.613281 250.21875 " fill-opacity="1" fill-rule="nonzero"/></g><path fill="#ff9900" d="M 115.257812 171.410156 L 233.472656 171.410156 L 233.472656 105.660156 L 228.238281 107.582031 C 225.828125 108.453125 223.390625 108.890625 220.976562 108.890625 C 212.921875 108.890625 205.6875 104.375 202.046875 97.117188 C 199.328125 91.625 199.09375 85.238281 201.378906 79.59375 C 203.636719 74.027344 208.152344 69.667969 213.769531 67.664062 L 233.472656 60.429688 L 233.472656 40.0625 L 115.257812 40.0625 L 115.257812 171.410156 " fill-opacity="1" fill-rule="nonzero"/><g clip-path="url(#f093cfbf8e)"><path fill="#ff9900" d="M 338.550781 7.222656 L 338.550781 66.332031 C 338.550781 69.949219 341.5 72.898438 345.117188 72.898438 L 364.820312 72.898438 C 368.4375 72.898438 371.386719 69.949219 371.386719 66.332031 L 371.386719 13.792969 C 371.386719 10.175781 368.4375 7.222656 364.820312 7.222656 L 338.550781 7.222656 " fill-opacity="1" fill-rule="nonzero"/></g><g fill="#ffffff" fill-opacity="1"><g transform="translate(23.641003, 343.837005)"><g><path d="M 3.796875 0 L 3.796875 -43.546875 L 35.875 -43.546875 L 35.875 -35.953125 L 13.84375 -35.953125 L 13.84375 -25.3125 L 30.96875 -25.3125 L 30.96875 -17.71875 L 13.84375 -17.71875 L 13.84375 -7.59375 L 35.875 -7.59375 L 35.875 0 Z M 3.796875 0 "/></g></g></g><g fill="#ffffff" fill-opacity="1"><g transform="translate(62.200792, 343.837005)"><g><path d="M 13.84375 0.453125 C 6.894531 0.453125 3.421875 -4.238281 3.421875 -13.625 L 3.421875 -43.546875 L 13.46875 -43.546875 L 13.46875 -11.3125 C 13.46875 -8.53125 14.929688 -7.019531 17.859375 -6.78125 L 17.859375 0.15625 C 16.722656 0.351562 15.382812 0.453125 13.84375 0.453125 Z M 13.84375 0.453125 "/></g></g></g><g fill="#ffffff" fill-opacity="1"><g transform="translate(81.852888, 343.837005)"><g><path d="M 20.46875 0.453125 C 14.414062 0.453125 9.875 -1.082031 6.84375 -4.15625 C 3.820312 -7.238281 2.3125 -11.160156 2.3125 -15.921875 C 2.3125 -20.785156 3.785156 -24.742188 6.734375 -27.796875 C 9.691406 -30.847656 14.195312 -32.375 20.25 -32.375 C 26.25 -32.375 30.675781 -30.847656 33.53125 -27.796875 C 36.382812 -24.742188 37.8125 -20.785156 37.8125 -15.921875 L 37.8125 -12.28125 L 12.359375 -12.28125 C 12.648438 -10.195312 13.453125 -8.757812 14.765625 -7.96875 C 16.085938 -7.175781 17.960938 -6.78125 20.390625 -6.78125 C 23.316406 -6.78125 25.226562 -7.722656 26.125 -9.609375 L 36.25 -9.609375 C 35.90625 -6.722656 34.242188 -4.320312 31.265625 -2.40625 C 28.285156 -0.5 24.6875 0.453125 20.46875 0.453125 Z M 12.4375 -19.359375 L 27.921875 -19.359375 C 27.222656 -21.640625 26.273438 -23.175781 25.078125 -23.96875 C 23.890625 -24.757812 22.253906 -25.15625 20.171875 -25.15625 C 18.085938 -25.15625 16.445312 -24.757812 15.25 -23.96875 C 14.0625 -23.175781 13.125 -21.640625 12.4375 -19.359375 Z M 12.4375 -19.359375 "/></g></g></g><g fill="#ffffff" fill-opacity="1"><g transform="translate(121.603713, 343.837005)"><g><path d="M 21.0625 0.453125 C 14.90625 0.453125 10.238281 -1.070312 7.0625 -4.125 C 3.894531 -7.175781 2.3125 -11.109375 2.3125 -15.921875 C 2.3125 -20.742188 3.894531 -24.691406 7.0625 -27.765625 C 10.238281 -30.835938 14.90625 -32.375 21.0625 -32.375 C 26.46875 -32.375 30.5 -31.394531 33.15625 -29.4375 C 35.8125 -27.476562 37.460938 -24.5625 38.109375 -20.6875 L 28.0625 -20.6875 C 27.414062 -23.664062 25.082031 -25.15625 21.0625 -25.15625 C 18.238281 -25.15625 16.082031 -24.359375 14.59375 -22.765625 C 13.101562 -21.179688 12.359375 -18.898438 12.359375 -15.921875 C 12.359375 -12.953125 13.101562 -10.6875 14.59375 -9.125 C 16.082031 -7.5625 18.238281 -6.78125 21.0625 -6.78125 C 25.082031 -6.78125 27.414062 -8.265625 28.0625 -11.234375 L 38.109375 -11.234375 C 37.460938 -7.367188 35.820312 -4.453125 33.1875 -2.484375 C 30.5625 -0.523438 26.519531 0.453125 21.0625 0.453125 Z M 21.0625 0.453125 "/></g></g></g><g fill="#ffffff" fill-opacity="1"><g transform="translate(161.354539, 343.837005)"><g><path d="M 18.53125 0.453125 C 14.664062 0.453125 11.875 -0.675781 10.15625 -2.9375 C 8.445312 -5.195312 7.59375 -8.632812 7.59375 -13.25 L 7.59375 -24.046875 L 1.5625 -24.046875 L 1.5625 -31.640625 L 7.59375 -31.640625 L 7.59375 -41.09375 L 17.71875 -43.765625 L 17.71875 -31.640625 L 25.6875 -31.640625 L 25.6875 -24.046875 L 17.71875 -24.046875 L 17.71875 -12.359375 C 17.71875 -8.929688 19.601562 -7.21875 23.375 -7.21875 C 23.820312 -7.21875 24.59375 -7.269531 25.6875 -7.375 L 25.6875 -0.296875 C 24.289062 0.046875 21.90625 0.296875 18.53125 0.453125 Z M 18.53125 0.453125 "/></g></g></g><g fill="#ffffff" fill-opacity="1"><g transform="translate(189.716079, 343.837005)"><g><path d="M 3.9375 -33.9375 L 3.9375 -43.546875 L 13.765625 -43.546875 L 13.765625 -33.9375 Z M 3.796875 0 L 3.796875 -31.640625 L 13.84375 -31.640625 L 13.84375 0 Z M 3.796875 0 "/></g></g></g><g fill="#ffffff" fill-opacity="1"><g transform="translate(207.358293, 343.837005)"><g><path d="M 34.453125 -4.09375 C 31.378906 -1.0625 26.789062 0.453125 20.6875 0.453125 C 14.582031 0.453125 9.992188 -1.0625 6.921875 -4.09375 C 3.847656 -7.125 2.3125 -11.066406 2.3125 -15.921875 C 2.3125 -20.785156 3.847656 -24.742188 6.921875 -27.796875 C 9.992188 -30.847656 14.582031 -32.375 20.6875 -32.375 C 26.789062 -32.375 31.378906 -30.847656 34.453125 -27.796875 C 37.535156 -24.742188 39.078125 -20.785156 39.078125 -15.921875 C 39.078125 -11.066406 37.535156 -7.125 34.453125 -4.09375 Z M 20.6875 -6.78125 C 23.21875 -6.78125 25.238281 -7.519531 26.75 -9 C 28.269531 -10.488281 29.03125 -12.796875 29.03125 -15.921875 C 29.03125 -19.054688 28.257812 -21.378906 26.71875 -22.890625 C 25.1875 -24.398438 23.175781 -25.15625 20.6875 -25.15625 C 18.257812 -25.15625 16.265625 -24.382812 14.703125 -22.84375 C 13.140625 -21.3125 12.359375 -19.003906 12.359375 -15.921875 C 12.359375 -12.847656 13.140625 -10.554688 14.703125 -9.046875 C 16.265625 -7.535156 18.257812 -6.78125 20.6875 -6.78125 Z M 20.6875 -6.78125 "/></g></g></g><g fill="#ffffff" fill-opacity="1"><g transform="translate(248.746809, 343.837005)"><g><path d="M 3.796875 0 L 3.796875 -31.640625 L 13.25 -31.640625 L 13.84375 -28.65625 C 16.226562 -31.132812 19.753906 -32.375 24.421875 -32.375 C 28.785156 -32.375 32.179688 -31.144531 34.609375 -28.6875 C 37.046875 -26.238281 38.265625 -22.78125 38.265625 -18.3125 L 38.265625 0 L 28.21875 0 L 28.21875 -17.1875 C 28.21875 -20.125 27.644531 -22.1875 26.5 -23.375 C 25.351562 -24.5625 23.664062 -25.15625 21.4375 -25.15625 C 19.601562 -25.15625 17.878906 -24.4375 16.265625 -23 C 14.648438 -21.5625 13.84375 -19.898438 13.84375 -18.015625 L 13.84375 0 Z M 3.796875 0 "/></g></g></g><g fill="#ffffff" fill-opacity="1"><g transform="translate(290.060883, 343.837005)"><g><path d="M 18.3125 0.453125 C 9.226562 0.453125 3.894531 -2.773438 2.3125 -9.234375 L 12.28125 -9.234375 C 13.320312 -7.242188 15.207031 -6.25 17.9375 -6.25 C 21.851562 -6.25 23.8125 -7.21875 23.8125 -9.15625 C 23.8125 -10 23.144531 -10.59375 21.8125 -10.9375 C 20.320312 -11.332031 18.582031 -11.707031 16.59375 -12.0625 C 7.21875 -13.644531 2.53125 -16.992188 2.53125 -22.109375 C 2.53125 -28.953125 7.519531 -32.375 17.5 -32.375 C 25.976562 -32.375 31.015625 -29.148438 32.609375 -22.703125 L 22.546875 -22.703125 C 22.253906 -23.441406 21.957031 -23.984375 21.65625 -24.328125 C 21.363281 -24.679688 20.878906 -24.992188 20.203125 -25.265625 C 19.535156 -25.546875 18.632812 -25.6875 17.5 -25.6875 C 14.21875 -25.6875 12.578125 -24.691406 12.578125 -22.703125 C 12.578125 -22.359375 12.710938 -22.007812 12.984375 -21.65625 C 13.265625 -21.3125 13.6875 -21.015625 14.25 -20.765625 C 14.820312 -20.515625 15.394531 -20.289062 15.96875 -20.09375 C 16.539062 -19.894531 17.257812 -19.695312 18.125 -19.5 C 18.988281 -19.300781 19.734375 -19.140625 20.359375 -19.015625 C 20.984375 -18.890625 21.753906 -18.738281 22.671875 -18.5625 C 23.585938 -18.394531 24.242188 -18.285156 24.640625 -18.234375 C 30.796875 -16.941406 33.875 -14.265625 33.875 -10.203125 C 33.875 -6.828125 32.507812 -4.207031 29.78125 -2.34375 C 27.050781 -0.476562 23.226562 0.453125 18.3125 0.453125 Z M 18.3125 0.453125 "/></g></g></g></svg>