<svg viewBox="0 0 100 100" xmlns="http://www.w3.org/2000/svg" id="Phone-Comment-Text-3--Streamline-Ux.svg"><desc>Phone Comment Text 3 Streamline Illustration: https://streamlinehq.com</desc><path d="M2.0194 48.016C2.0194 83.7622 40.7157 106.1035 71.6728 88.2304C86.04 79.9355 94.8906 64.6059 94.8906 48.016C94.8906 12.2699 56.1942 -10.0714 25.2372 7.8016C10.87 16.0966 2.0194 31.4262 2.0194 48.016Z" fill="#daedf7" stroke="#daedf7" stroke-width="1"></path><path d="M39.6856 97.2587C39.6856 98.5991 47.4249 99.4369 53.6163 98.7667C56.4897 98.4556 58.2599 97.8808 58.2599 97.2587C58.2599 95.9182 50.5206 95.0804 44.3292 95.7506C41.4557 96.0617 39.6856 96.6366 39.6856 97.2587Z" fill="#45413c" opacity=".15" stroke-width="1"></path><path d="M74.4485 8.6143C74.4369 5.9458 72.2644 3.792 69.5959 3.8035H28.3495C25.6811 3.792 23.5085 5.9458 23.497 8.6143V84.6026C23.5092 87.2706 25.6815 89.4238 28.3495 89.4122H69.596C72.2646 89.4231 74.437 87.269 74.4485 84.6003ZM69.9523 71.7667C69.9523 72.4078 69.4326 72.9276 68.7914 72.9276H29.1587C28.5175 72.9276 27.9978 72.4079 27.9978 71.7667V18.4528C27.9978 17.8117 28.5175 17.2919 29.1587 17.2919H68.7868C69.4279 17.2919 69.9477 17.8117 69.9477 18.4528Z" fill="#ffffff" stroke-width="1"></path><path d="M69.5959 89.4122H28.3495C25.6806 89.4238 23.5079 87.2692 23.497 84.6003V80.9946C23.5085 83.663 25.6811 85.8169 28.3495 85.8053H69.596C72.2644 85.8169 74.437 83.663 74.4485 80.9946V84.6026C74.4357 87.2704 72.2637 89.4231 69.596 89.4122Z" fill="#daedf7" stroke-width="1"></path><path d="M74.4485 8.6143C74.4369 5.9458 72.2644 3.792 69.5959 3.8035H28.3495C25.6811 3.792 23.5085 5.9458 23.497 8.6143V84.6026C23.5092 87.2706 25.6815 89.4238 28.3495 89.4122H69.596C72.2646 89.4231 74.437 87.269 74.4485 84.6003ZM69.9523 71.7667C69.9523 72.4078 69.4326 72.9276 68.7914 72.9276H29.1587C28.5175 72.9276 27.9978 72.4079 27.9978 71.7667V18.4528C27.9978 17.8117 28.5175 17.2919 29.1587 17.2919H68.7868C69.4279 17.2919 69.9477 17.8117 69.9477 18.4528ZM69.9523 71.7667C69.9523 72.4078 69.4326 72.9276 68.7914 72.9276H29.1587C28.5175 72.9276 27.9978 72.4079 27.9978 71.7667V18.4528C27.9978 17.8117 28.5175 17.2919 29.1587 17.2919H68.7868C69.4279 17.2919 69.9477 17.8117 69.9477 18.4528Z" fill="none" stroke="#45413c" stroke-linecap="round" stroke-linejoin="round" stroke-width="1"></path><path d="M41.0868 8.67C40.2003 8.6772 39.654 9.6413 40.1035 10.4054C40.5529 11.1695 41.661 11.1606 42.098 10.3893C42.1963 10.2158 42.2479 10.0198 42.2477 9.8204C42.242 9.1834 41.7239 8.67 41.0868 8.67Z" fill="#45413c" stroke-width="1"></path><path d="M45.3334 9.8204H56.2515" fill="#ffffff" stroke="#45413c" stroke-linecap="round" stroke-linejoin="round" stroke-width="1"></path><path d="M44.8748 81.5959C44.8748 84.7237 48.2897 86.6786 51.0217 85.1147C52.2896 84.3889 53.0707 83.0475 53.0707 81.5959C53.0707 78.4682 49.6557 76.5133 46.9238 78.0772C45.6559 78.803 44.8748 80.1443 44.8748 81.5959Z" fill="#ffffff" stroke="#45413c" stroke-linecap="round" stroke-linejoin="round" stroke-width="1"></path><path d="M69.9523 71.7667C69.9523 72.4078 69.4326 72.9276 68.7915 72.9276H29.1587C28.5175 72.9276 27.9978 72.4079 27.9978 71.7667V18.4528C27.9978 17.8117 28.5175 17.2919 29.1587 17.2919H68.7868C69.428 17.2919 69.9477 17.8117 69.9477 18.4528Z" fill="#4acfff" stroke-width="1"></path><path d="M61.7054 17.2942H29.1587C28.5175 17.2942 27.9978 17.814 27.9978 18.4551V51.0065Z" fill="#4acfff" stroke-width="1"></path><path d="M69.9523 71.7667C69.9523 72.4078 69.4326 72.9276 68.7915 72.9276H29.1587C28.5175 72.9276 27.9978 72.4079 27.9978 71.7667V18.4528C27.9978 17.8117 28.5175 17.2919 29.1587 17.2919H68.7868C69.428 17.2919 69.9477 17.8117 69.9477 18.4528Z" fill="none" stroke="#45413c" stroke-linecap="round" stroke-linejoin="round" stroke-width="1"></path><path d="M18.2591 43.3609H73.637V64.7061H18.2591Z" fill="#ffffff" stroke="#45413c" stroke-linecap="round" stroke-linejoin="round" stroke-width="1"></path><path d="M32.5856 48.4583H52.6493" fill="none" stroke="#45413c" stroke-linecap="round" stroke-linejoin="round" stroke-width="1"></path><path d="M27.4301 53.7265H53.1392" fill="none" stroke="#45413c" stroke-linecap="round" stroke-linejoin="round" stroke-width="1"></path><path d="M27.4301 58.832H53.1392" fill="none" stroke="#45413c" stroke-linecap="round" stroke-linejoin="round" stroke-width="1"></path><path d="M32.3674 29.9804H65.5781V34.624H32.3674Z" fill="#daedf7" stroke="#45413c" stroke-linecap="round" stroke-linejoin="round" stroke-width="1"></path><path d="M32.3674 21.4909H65.5781V26.1344H32.3674Z" fill="#daedf7" stroke="#45413c" stroke-linecap="round" stroke-linejoin="round" stroke-width="1"></path><path d="M90.6406 48.557C90.211 48.2951 90.226 47.6664 90.6676 47.4253C90.7788 47.3645 90.9054 47.3375 91.0318 47.3474L97.3772 47.8373C97.7981 47.8704 98.0781 48.2872 97.9495 48.6893L97.0429 51.5219C96.9132 51.9248 96.441 52.1006 96.0793 51.8806Z" fill="#ffe500" stroke="#b58b00" stroke-linecap="round" stroke-linejoin="round" stroke-width="1"></path><path d="M82.9241 35.8162C82.6622 36.2458 82.0335 36.2309 81.7924 35.7893C81.7317 35.678 81.7046 35.5514 81.7145 35.425L82.2044 29.0796C82.2367 28.6589 82.6534 28.3786 83.0553 28.5073L85.889 29.4139C86.292 29.5437 86.4677 30.0159 86.2477 30.3775Z" fill="#ffe500" stroke="#b58b00" stroke-linecap="round" stroke-linejoin="round" stroke-width="1"></path><path d="M87.4516 42.0282C86.9617 42.1465 86.5273 41.6901 86.6698 41.2067C86.7055 41.0856 86.7754 40.9774 86.8712 40.8951L93.6612 35.0791C93.9817 34.8044 94.4746 34.9011 94.6677 35.2764L96.5808 38.9913C96.7757 39.3679 96.5658 39.8275 96.1536 39.927Z" fill="#ffe500" stroke="#b58b00" stroke-linecap="round" stroke-linejoin="round" stroke-width="1"></path><path d="M86.4242 57.1952C86.4107 55.9448 85.5185 54.8769 84.2905 54.6412V52.9278C84.1971 43.073 73.4706 37.0149 64.9828 42.0232C61.1182 44.3035 58.7296 48.4407 58.6871 52.9278V54.6354C56.7099 55.0062 55.8755 57.3782 57.1851 58.9051C57.6334 59.4278 58.27 59.7524 58.9564 59.8084C60.9694 69.4558 72.6711 73.3063 80.0196 66.7393C82.0598 64.916 83.4623 62.487 84.0212 59.8084C85.3755 59.6859 86.4154 58.555 86.4242 57.1952Z" fill="#ffdb94" stroke="#45413c" stroke-linecap="round" stroke-linejoin="round" stroke-width="1"></path><path d="M62.9557 58.7949C62.9526 60.0264 64.2837 60.7993 65.3517 60.1863C65.8499 59.9003 66.1565 59.3693 66.1551 58.7949C66.1581 57.5634 64.827 56.7905 63.759 57.4035C63.2608 57.6895 62.9542 58.2205 62.9557 58.7949Z" fill="#ffbe3d" stroke-width="1"></path><path d="M76.8236 58.7949C76.8206 60.0264 78.1517 60.7993 79.2197 60.1863C79.7179 59.9003 80.0245 59.3693 80.0231 58.7949C80.0261 57.5634 78.695 56.7905 77.627 57.4035C77.1288 57.6895 76.8222 58.2205 76.8236 58.7949Z" fill="#ffbe3d" stroke-width="1"></path><path d="M69.358 64.662H69.358C70.7004 65.3351 72.2818 65.3351 73.6242 64.662H73.6242" fill="none" stroke="#45413c" stroke-linecap="round" stroke-linejoin="round" stroke-width="1"></path><path d="M71.4894 59.8618V60.9286" fill="none" stroke="#45413c" stroke-linecap="round" stroke-linejoin="round" stroke-width="1"></path><path d="M73.6231 59.8618V60.9286" fill="none" stroke="#45413c" stroke-linecap="round" stroke-linejoin="round" stroke-width="1"></path><path d="M69.3556 59.8618V60.9286" fill="none" stroke="#45413c" stroke-linecap="round" stroke-linejoin="round" stroke-width="1"></path><path d="M75.7556 60.9286V61.9955" fill="none" stroke="#45413c" stroke-linecap="round" stroke-linejoin="round" stroke-width="1"></path><path d="M77.8893 63.0623V68.2817" fill="none" stroke="#45413c" stroke-linecap="round" stroke-linejoin="round" stroke-width="1"></path><path d="M67.2219 60.9286V61.9955" fill="none" stroke="#45413c" stroke-linecap="round" stroke-linejoin="round" stroke-width="1"></path><path d="M65.0882 63.0623V68.284" fill="none" stroke="#45413c" stroke-linecap="round" stroke-linejoin="round" stroke-width="1"></path><path d="M71.4894 69.9963V68.3955" fill="none" stroke="#45413c" stroke-linecap="round" stroke-linejoin="round" stroke-width="1"></path><path d="M69.3556 69.8199V68.3955" fill="none" stroke="#45413c" stroke-linecap="round" stroke-linejoin="round" stroke-width="1"></path><path d="M67.2219 69.2684V67.3298" fill="none" stroke="#45413c" stroke-linecap="round" stroke-linejoin="round" stroke-width="1"></path><path d="M73.6231 69.8199V68.3955" fill="none" stroke="#45413c" stroke-linecap="round" stroke-linejoin="round" stroke-width="1"></path><path d="M75.7556 69.2684V67.3298" fill="none" stroke="#45413c" stroke-linecap="round" stroke-linejoin="round" stroke-width="1"></path><path d="M77.2567 55.0615C76.5476 54.3523 75.3978 54.3523 74.6888 55.0615" fill="none" stroke="#45413c" stroke-linecap="round" stroke-linejoin="round" stroke-width="1"></path><path d="M65.7209 55.0615C66.43 54.3523 67.5797 54.3523 68.2888 55.0615" fill="none" stroke="#45413c" stroke-linecap="round" stroke-linejoin="round" stroke-width="1"></path><path d="M83.125 54.5031C84.2848 54.7926 85.4219 53.9553 85.4897 52.7618L85.7219 48.7068C86.1438 43.222 83.1226 38.0499 78.1378 35.7234C72.9938 33.3488 66.912 34.4703 62.9533 38.5234C59.495 38.5249 56.7633 41.4587 57.0084 44.9083L57.4809 52.7641C57.5524 53.9577 58.6897 54.7936 59.8503 54.5054C61.0462 54.2063 61.8855 53.132 61.8865 51.8992V49.495C61.8865 46.3828 64.4092 43.8599 67.5214 43.86H75.4538C78.5658 43.8602 81.0888 46.383 81.0888 49.495V51.8969C81.0897 53.1297 81.929 54.2039 83.125 54.5031Z" fill="#614b44" stroke-width="1"></path><path d="M57.1199 46.7379C57.6968 43.9749 60.1319 41.9947 62.9545 41.9933C66.9126 37.9392 72.9951 36.8176 78.1389 39.1933C82.2838 41.1278 85.133 45.0688 85.6708 49.6111L85.723 48.7091C86.1449 43.2243 83.1237 38.0522 78.1389 35.7257C72.995 33.3511 66.9131 34.4726 62.9545 38.5258C59.4963 38.5271 56.7649 41.4612 57.0107 44.9107Z" fill="#947063" stroke-width="1"></path><path d="M83.125 54.5031C84.2848 54.7926 85.4219 53.9553 85.4897 52.7618L85.7219 48.7068C86.1438 43.222 83.1226 38.0499 78.1378 35.7234C72.9938 33.3488 66.912 34.4703 62.9533 38.5234C59.495 38.5249 56.7633 41.4587 57.0084 44.9083L57.4809 52.7641C57.5524 53.9577 58.6897 54.7936 59.8503 54.5054C61.0462 54.2063 61.8855 53.132 61.8865 51.8992V49.495C61.8865 46.3828 64.4092 43.8599 67.5214 43.86H75.4538C78.5658 43.8602 81.0888 46.383 81.0888 49.495V51.8969C81.0897 53.1297 81.929 54.2039 83.125 54.5031Z" fill="none" stroke="#45413c" stroke-linecap="round" stroke-linejoin="round" stroke-width="1"></path></svg>