<svg viewBox="0 0 100 100" xmlns="http://www.w3.org/2000/svg" id="Podium-Presentation-4--Streamline-Ux.svg"><desc>Podium Presentation 4 Streamline Illustration: https://streamlinehq.com</desc><path d="M1.6049 50C1.6049 87.2545 41.9342 110.5386 74.1975 91.9114C89.171 83.2664 98.3951 67.2899 98.3951 50C98.3951 12.7455 58.0658 -10.5386 25.8025 8.0887C10.829 16.7336 1.6049 32.7101 1.6049 50Z" fill="#daedf7" stroke="#daedf7" stroke-width="1"></path><path d="M35.4452 62.8707H64.5536V92.9688H35.4452Z" fill="#bf8256" stroke-width="1"></path><path d="M35.4452 62.8707H64.5536V70.4457H35.4452Z" fill="#915e3a" stroke-width="1"></path><path d="M35.4452 92.9676V62.8707H64.5548V92.9676" fill="none" stroke="#45413c" stroke-linecap="round" stroke-linejoin="round" stroke-width="1"></path><path d="M93.9572 54.3471H6.0428L17.9891 23.0923C18.2131 22.5089 18.7736 22.124 19.3986 22.1244H80.6014C81.2264 22.124 81.7869 22.5089 82.0109 23.0923Z" fill="#e09f7e" stroke="#45413c" stroke-linecap="round" stroke-linejoin="round" stroke-width="1"></path><path d="M90.5756 61.1902C90.0655 62.2185 89.0171 62.8695 87.8691 62.8707H12.1309C10.9833 62.869 9.9355 62.2181 9.4256 61.1902L6.0379 54.3471H93.9572Z" fill="#bf8256" stroke="#45413c" stroke-linecap="round" stroke-linejoin="round" stroke-width="1"></path><path d="M65.9704 46.7394C65.7699 47.4952 65.0252 47.9725 64.2548 47.8392L42.356 44.051C41.3981 43.8851 40.8449 42.8698 41.2248 41.9749L47.9783 26.0444C48.235 25.4403 48.8528 25.0715 49.5064 25.1322L69.3895 26.9639C70.3185 27.0503 70.9472 27.9507 70.7082 28.8526Z" fill="#ffffff" stroke="#45413c" stroke-linecap="round" stroke-linejoin="round" stroke-width="1"></path><path d="M64.4883 48.4719C64.7838 49.4413 64.0595 50.4208 63.0461 50.4222H33.9365C32.9231 50.4208 32.1987 49.4413 32.4943 48.4719L37.2963 32.8198C37.4901 32.1858 38.0756 31.7531 38.7385 31.7539H58.2477C58.9107 31.7538 59.4961 32.1861 59.6911 32.8198Z" fill="#ffffff" stroke="#45413c" stroke-linecap="round" stroke-linejoin="round" stroke-width="1"></path><path d="M43.1872 37.4608H53.7954" fill="none" stroke="#45413c" stroke-linecap="round" stroke-linejoin="round" stroke-width="1"></path><path d="M41.5006 42.8581H55.4819" fill="none" stroke="#45413c" stroke-linecap="round" stroke-linejoin="round" stroke-width="1"></path><path d="M21.5885 27.8254L25.252 16.3908C25.6522 15.1417 26.8137 14.2942 28.1254 14.2941H30.0975" fill="none" stroke="#45413c" stroke-linecap="round" stroke-linejoin="round" stroke-width="1"></path><path d="M40.2097 18.3714C43.3488 18.3176 45.2525 14.8857 43.6363 12.194C42.9119 10.9875 41.6167 10.2398 40.2097 10.2156H34.1748C31.0357 10.2695 29.132 13.7014 30.7482 16.393C31.4726 17.5995 32.7678 18.3473 34.1748 18.3714Z" fill="#87898c" stroke="#45413c" stroke-linecap="round" stroke-linejoin="round" stroke-width="1"></path><path d="M78.4115 27.8254L74.748 16.3908C74.3478 15.1417 73.1863 14.2942 71.8746 14.2941H69.9025" fill="none" stroke="#45413c" stroke-linecap="round" stroke-linejoin="round" stroke-width="1"></path><path d="M59.7903 18.3714C56.6512 18.3176 54.7475 14.8857 56.3637 12.194C57.0881 10.9875 58.3833 10.2398 59.7903 10.2156H65.8252C68.9643 10.2695 70.868 13.7014 69.2518 16.393C68.5274 17.5995 67.2322 18.3473 65.8252 18.3714Z" fill="#87898c" stroke="#45413c" stroke-linecap="round" stroke-linejoin="round" stroke-width="1"></path><path d="M42.0015 62.8707H57.9985V92.9688H42.0015Z" fill="#e09f7e" stroke-width="1"></path><path d="M42.0015 62.8707H57.9985V67.4283H42.0015Z" fill="#bf8256" stroke-width="1"></path><path d="M42.0015 92.9676V62.8707H57.9985V92.9676" fill="none" stroke="#45413c" stroke-linecap="round" stroke-linejoin="round" stroke-width="1"></path><path d="M1.6049 50C1.6049 87.2545 41.9342 110.5386 74.1975 91.9114C89.171 83.2664 98.3951 67.2899 98.3951 50C98.3951 12.7455 58.0658 -10.5386 25.8025 8.0887C10.829 16.7336 1.6049 32.7101 1.6049 50Z" fill="none" stroke-width="1"></path></svg>