<svg width="463" height="463" viewBox="0 0 463 463" fill="none" xmlns="http://www.w3.org/2000/svg">
<path d="M320.057 393.284C320.057 398.192 281.576 402.178 234.109 402.178C186.642 402.178 148.166 398.192 148.166 393.284C148.166 388.375 186.647 384.39 234.109 384.39C281.571 384.39 320.057 388.37 320.057 393.284Z" fill="#45413C"/>
<path d="M92.8 100.039L57.862 201.95C57.1912 203.908 57.0226 206.004 57.3713 208.044C57.7194 210.084 58.5746 212.004 59.8576 213.629L93.4547 256.188C94.5372 257.559 95.8975 258.686 97.4472 259.494C98.9964 260.301 100.7 260.772 102.443 260.874C104.188 260.976 105.934 260.708 107.567 260.087C109.2 259.466 110.683 258.506 111.919 257.271L120.643 248.551L92.8 100.039Z" fill="white" stroke="#45413C" stroke-linecap="round" stroke-linejoin="round"/>
<path d="M59.8576 213.613L93.4547 256.172C94.5372 257.543 95.8975 258.67 97.4471 259.478C98.9968 260.286 100.7 260.756 102.443 260.858C104.187 260.961 105.934 260.693 107.567 260.071C109.2 259.45 110.683 258.491 111.919 257.254L112.017 257.162L61.0586 192.617L57.862 201.934C57.1912 203.893 57.0226 205.988 57.3713 208.028C57.7194 210.069 58.5746 211.989 59.8576 213.613Z" fill="#0019FF" stroke="#45413C" stroke-linecap="round" stroke-linejoin="round"/>
<path d="M92.8 100.039L75.5472 150.343L110.537 194.665L92.8 100.039Z" fill="#FF0000" stroke="#45413C" stroke-linecap="round" stroke-linejoin="round"/>
<path d="M92.2842 254.687V298.03" stroke="black" stroke-linecap="round" stroke-linejoin="round"/>
<path d="M98.9871 93.8469C98.9871 95.0701 98.6241 96.2665 97.9449 97.2842C97.2647 98.3014 96.2984 99.0945 95.1678 99.5626C94.0367 100.032 92.7931 100.154 91.593 99.9149C90.3924 99.676 89.29 99.0871 88.4251 98.2217C87.5593 97.3564 86.9704 96.254 86.7315 95.0539C86.4926 93.8534 86.6153 92.6093 87.0834 91.4791C87.5519 90.3484 88.345 89.3822 89.3622 88.702C90.3794 88.0223 91.5763 87.6593 92.8 87.6593C94.4414 87.6593 96.0146 88.3112 97.1749 89.4715C98.3356 90.6318 98.9871 92.2055 98.9871 93.8469Z" fill="#FF9900" stroke="#45413C" stroke-linecap="round" stroke-linejoin="round"/>
<path d="M107.335 309.41C106.267 306.218 104.257 303.426 101.571 301.401C98.8834 299.376 95.6456 298.213 92.2842 298.066C88.9224 298.212 85.6846 299.375 82.9969 301.401C80.3101 303.426 78.3002 306.218 77.2335 309.41C76.8974 310.193 76.7608 311.049 76.8367 311.899C76.9122 312.749 77.1978 313.566 77.6678 314.279C78.1373 314.991 78.7762 315.576 79.5277 315.98C80.2786 316.385 81.1185 316.597 81.9718 316.597H102.597C103.45 316.598 104.291 316.386 105.043 315.982C105.795 315.578 106.434 314.993 106.904 314.281C107.375 313.568 107.661 312.75 107.737 311.9C107.812 311.05 107.676 310.194 107.34 309.409L107.335 309.41Z" fill="#FF8A14" stroke="#45413C" stroke-linecap="round" stroke-linejoin="round"/>
<path d="M375.356 100.039L410.294 201.95C410.965 203.908 411.133 206.004 410.785 208.044C410.437 210.084 409.581 212.004 408.299 213.629L374.696 256.188C373.613 257.558 372.253 258.684 370.704 259.491C369.155 260.299 367.453 260.769 365.709 260.871C363.966 260.974 362.22 260.706 360.588 260.085C358.956 259.464 357.473 258.505 356.237 257.271L347.513 248.551L375.356 100.039Z" fill="white" stroke="#45413C" stroke-linecap="round" stroke-linejoin="round"/>
<path d="M408.299 213.613L374.696 256.172C373.613 257.543 372.253 258.668 370.704 259.476C369.155 260.283 367.453 260.753 365.71 260.856C363.966 260.957 362.221 260.69 360.588 260.069C358.956 259.449 357.473 258.489 356.237 257.254L356.139 257.162L407.097 192.617L410.294 201.934C410.965 203.893 411.133 205.988 410.785 208.028C410.437 210.069 409.581 211.989 408.299 213.613Z" fill="#001AFF" stroke="#45413C" stroke-linecap="round" stroke-linejoin="round"/>
<path d="M375.356 100.039L392.609 150.343L357.614 194.665L375.356 100.039Z" fill="#FF0000" stroke="#45413C" stroke-linecap="round" stroke-linejoin="round"/>
<path d="M375.872 254.687V298.03" stroke="black" stroke-linecap="round" stroke-linejoin="round"/>
<path d="M369.169 93.8469C369.169 95.0701 369.532 96.2665 370.212 97.2842C370.892 98.3014 371.858 99.0945 372.989 99.5626C374.119 100.032 375.363 100.154 376.563 99.9149C377.764 99.676 378.866 99.0871 379.731 98.2217C380.597 97.3564 381.186 96.254 381.425 95.0539C381.663 93.8534 381.541 92.6093 381.073 91.4791C380.604 90.3484 379.811 89.3822 378.794 88.702C377.776 88.0223 376.58 87.6593 375.356 87.6593C373.715 87.6593 372.141 88.3112 370.981 89.4715C369.82 90.6318 369.169 92.2055 369.169 93.8469Z" fill="#FF9900" stroke="#45413C" stroke-linecap="round" stroke-linejoin="round"/>
<path d="M360.821 309.409C361.756 306.139 363.731 303.262 366.446 301.215C369.162 299.167 372.471 298.059 375.872 298.059C379.272 298.059 382.582 299.167 385.297 301.215C388.013 303.262 389.987 306.139 390.922 309.409C391.259 310.194 391.395 311.049 391.319 311.9C391.243 312.75 390.957 313.568 390.487 314.281C390.017 314.993 389.377 315.578 388.625 315.982C387.873 316.386 387.033 316.598 386.179 316.597H365.554C364.701 316.597 363.861 316.385 363.11 315.98C362.359 315.576 361.72 314.991 361.25 314.278C360.78 313.566 360.495 312.749 360.42 311.899C360.344 311.049 360.48 310.193 360.816 309.409H360.821Z" fill="#FF8A14" stroke="#45413C" stroke-linecap="round" stroke-linejoin="round"/>
<path d="M187.859 389.118H226.994C226.994 364.204 187.859 366.658 187.859 389.118Z" fill="#DEBB7E" stroke="#45413C" stroke-linecap="round" stroke-linejoin="round"/>
<path d="M280.359 389.118H241.224C241.224 364.204 280.359 366.658 280.359 389.118Z" fill="#DEBB7E" stroke="#45413C" stroke-linecap="round" stroke-linejoin="round"/>
<path d="M154.044 277.121H136.266C133.121 277.121 130.104 275.872 127.88 273.647C125.656 271.424 124.407 268.407 124.407 265.262C124.407 262.117 125.656 259.1 127.88 256.876C130.104 254.652 133.121 253.403 136.266 253.403H154.044V277.121Z" fill="#FFDB94" stroke="#45413C" stroke-linecap="round" stroke-linejoin="round"/>
<path d="M314.076 277.121H331.854C334.999 277.121 338.015 275.872 340.239 273.647C342.464 271.424 343.713 268.407 343.713 265.262C343.713 262.117 342.464 259.1 340.239 256.876C338.015 254.652 334.999 253.403 331.854 253.403H314.076V277.121Z" fill="#FFDB94" stroke="#45413C" stroke-linecap="round" stroke-linejoin="round"/>
<path d="M234.094 299.056C237.518 302.991 241.644 306.256 246.262 308.682C249.738 310.545 253.62 311.52 257.564 311.518H272.569V240.224C276.281 252.795 286.191 261.88 293.059 268.171C301.227 275.608 311.918 279.664 322.965 279.514C319.526 270.344 319.526 260.238 322.965 251.068C300.546 251.068 298.328 223.684 286.985 200.269C278.513 182.775 264.948 167.497 234.058 167.497C203.167 167.497 189.606 182.775 181.13 200.269C169.786 223.683 167.574 251.068 145.15 251.068C148.594 260.237 148.594 270.344 145.15 279.514C156.197 279.662 166.886 275.607 175.056 268.171C181.919 261.906 191.767 252.795 195.479 240.224V311.498H210.551C214.493 311.499 218.373 310.524 221.848 308.662C226.494 306.252 230.647 302.994 234.094 299.056Z" fill="#87898C"/>
<path d="M172.364 224.318C182.248 206.828 198.073 191.545 234.093 191.545C270.114 191.545 285.964 206.828 295.823 224.318C297.189 226.736 298.401 229.19 299.592 231.655C295.467 222.317 292.178 210.881 287.021 200.244C278.55 182.749 264.984 167.471 234.093 167.471C203.203 167.471 189.642 182.749 181.166 200.244C176.009 210.865 172.746 222.276 168.621 231.598C169.791 229.154 171.013 226.7 172.364 224.318Z" fill="#BDBEC0"/>
<path d="M320.639 269.428C319.991 263.199 320.8 256.904 323.001 251.041C311.967 251.041 305.831 244.39 301.088 234.861C307.316 248.607 311.59 262.091 320.639 269.428Z" fill="#BDBEC0"/>
<path d="M147.522 269.429C156.561 262.091 160.866 248.624 167.115 234.883C162.372 244.406 156.241 251.047 145.207 251.047C147.39 256.913 148.183 263.205 147.522 269.429Z" fill="#BDBEC0"/>
<path d="M234.094 299.056C237.518 302.991 241.644 306.256 246.262 308.682C249.738 310.545 253.62 311.52 257.564 311.518H272.569V240.224C276.281 252.795 286.191 261.88 293.059 268.171C301.227 275.608 311.918 279.664 322.965 279.514C319.526 270.344 319.526 260.238 322.965 251.068C300.546 251.068 298.328 223.684 286.985 200.269C278.513 182.775 264.948 167.497 234.058 167.497C203.167 167.497 189.606 182.775 181.13 200.269C169.786 223.683 167.574 251.068 145.15 251.068C148.594 260.237 148.594 270.344 145.15 279.514C156.197 279.662 166.886 275.607 175.056 268.171C181.919 261.906 191.767 252.795 195.479 240.224V311.498H210.551C214.493 311.499 218.373 310.524 221.848 308.662C226.494 306.252 230.647 302.994 234.094 299.056Z" stroke="#45413C" stroke-linecap="round" stroke-linejoin="round"/>
<path d="M195.536 274.161V386.772H223.425L226.674 310.889C226.745 308.977 227.555 307.167 228.933 305.84C230.311 304.512 232.149 303.771 234.063 303.771C235.975 303.771 237.814 304.512 239.192 305.84C240.57 307.167 241.379 308.977 241.451 310.889L244.7 386.772H272.589V274.161H195.536Z" fill="#87898C"/>
<path d="M195.536 274.161V315.648H226.473L226.679 310.889C226.75 308.977 227.56 307.167 228.938 305.84C230.316 304.512 232.154 303.771 234.068 303.771C235.981 303.771 237.819 304.512 239.198 305.84C240.575 307.167 241.385 308.977 241.456 310.889L241.658 315.648H272.594V274.161H195.536Z" fill="#87898C"/>
<path d="M195.536 274.161V386.772H223.425L226.674 310.889C226.745 308.977 227.555 307.167 228.933 305.84C230.311 304.512 232.149 303.771 234.063 303.771C235.975 303.771 237.814 304.512 239.192 305.84C240.57 307.167 241.379 308.977 241.451 310.889L244.7 386.772H272.589V274.161H195.536Z" stroke="#45413C" stroke-linecap="round" stroke-linejoin="round"/>
<path d="M234.094 259.699L259.461 171.983C251.39 168.802 242.766 167.263 234.094 167.456C225.421 167.266 216.797 168.805 208.725 171.983L234.094 259.699Z" fill="white" stroke="#45413C" stroke-linecap="round" stroke-linejoin="round"/>
<path d="M234.094 259.699L208.725 171.998C201.16 175.149 194.539 180.202 189.503 186.667L207.39 202.811V220.589L234.094 259.699Z" fill="#87898C" stroke="#45413C" stroke-linecap="round" stroke-linejoin="round"/>
<path d="M234.094 259.699L259.461 171.983C267.027 175.133 273.648 180.187 278.684 186.652L260.735 202.796V220.574L234.094 259.699Z" fill="#87898C" stroke="#45413C" stroke-linecap="round" stroke-linejoin="round"/>
<path d="M244.658 223.183L234.094 183.388L223.529 223.178L234.094 259.714L244.658 223.183Z" fill="#17003C" stroke="#45413C" stroke-linecap="round" stroke-linejoin="round"/>
<path d="M253.14 193.896L234.094 183.388L215.042 193.901" stroke="#45413C" stroke-linecap="round" stroke-linejoin="round"/>
<path d="M272.589 284.608V219.419" stroke="#45413C" stroke-linecap="round" stroke-linejoin="round"/>
<path d="M195.536 284.608V219.419" stroke="#45413C" stroke-linecap="round" stroke-linejoin="round"/>
<path d="M246.479 168.404L234.016 183.388L221.683 168.404L221.708 128.944H246.504L246.479 168.404Z" fill="#FFDB94" stroke="#45413C" stroke-linecap="round" stroke-linejoin="round"/>
<path d="M275.6 93.0056C270.645 82.4047 259.802 74.0726 253.718 76.9288C249.639 69.406 243.034 66.9929 234.078 66.4104C210.36 67.4415 199.62 77.8933 192.556 93.0056C187.59 103.612 189.044 114.77 195.789 117.925C198.475 119.178 203.461 122.138 206.978 124.283C209.624 125.893 212.646 126.782 215.743 126.861C227.814 127.191 231.01 127.376 234.083 127.376C237.156 127.376 240.353 127.206 252.423 126.861C255.52 126.782 258.543 125.893 261.189 124.283C264.705 122.138 269.686 119.178 272.378 117.925C279.112 114.77 280.566 103.612 275.6 93.0056Z" fill="#614B44"/>
<path d="M192.556 104.236C199.62 89.1233 210.36 78.6716 234.078 77.6405C243.034 78.2178 249.639 80.6361 253.718 88.1589C259.802 85.3027 270.645 93.6297 275.6 104.236C276.587 106.334 277.343 108.534 277.859 110.795C279.194 104.782 278.396 98.4931 275.6 93.0056C270.645 82.4047 259.802 74.0726 253.718 76.9288C249.639 69.406 243.034 66.9929 234.078 66.4104C210.36 67.4415 199.62 77.8933 192.556 93.0056C189.76 98.4931 188.961 104.782 190.297 110.795C190.81 108.532 191.567 106.334 192.556 104.236Z" fill="#947063"/>
<path d="M275.6 93.0056C270.645 82.4047 259.802 74.0726 253.718 76.9288C249.639 69.406 243.034 66.9929 234.078 66.4104C210.36 67.4415 199.62 77.8933 192.556 93.0056C187.59 103.612 189.044 114.77 195.789 117.925C198.475 119.178 203.461 122.138 206.978 124.283C209.624 125.893 212.646 126.782 215.743 126.861C227.814 127.191 231.01 127.376 234.083 127.376C237.156 127.376 240.353 127.206 252.423 126.861C255.52 126.782 258.543 125.893 261.189 124.283C264.705 122.138 269.686 119.178 272.378 117.925C279.112 114.77 280.566 103.612 275.6 93.0056Z" stroke="#45413C" stroke-linecap="round" stroke-linejoin="round"/>
<path d="M198.501 119.627V119.591L201.517 121.086C201.933 121.294 202.39 121.406 202.855 121.417C203.32 121.428 203.782 121.336 204.208 121.149C204.633 120.961 205.012 120.682 205.318 120.332C205.624 119.981 205.849 119.568 205.977 119.122L210.458 103.431C210.976 101.574 212.184 99.9839 213.836 98.988C215.487 97.9921 217.457 97.6652 219.342 98.0741C224.178 99.1918 229.115 99.8168 234.078 99.9409C239.04 99.8163 243.977 99.1908 248.814 98.0741C250.699 97.6652 252.669 97.9921 254.32 98.988C255.972 99.9839 257.18 101.574 257.698 103.431L262.179 119.122C262.308 119.568 262.532 119.981 262.838 120.332C263.144 120.682 263.523 120.961 263.948 121.149C264.374 121.336 264.836 121.428 265.301 121.417C265.766 121.406 266.222 121.294 266.639 121.086L269.655 119.591V119.627C271.387 119.948 272.943 120.887 274.033 122.27C275.123 123.652 275.674 125.384 275.582 127.142C275.491 128.901 274.764 130.566 273.535 131.828C272.308 133.09 270.663 133.863 268.908 134.002C267.24 142.006 262.867 149.192 256.524 154.35C250.18 159.508 242.254 162.324 234.078 162.324C225.902 162.324 217.975 159.508 211.632 154.35C205.289 149.192 200.916 142.006 199.248 134.002C197.493 133.863 195.849 133.09 194.62 131.828C193.393 130.566 192.665 128.901 192.573 127.142C192.482 125.384 193.033 123.652 194.123 122.27C195.214 120.887 196.769 119.948 198.501 119.627Z" fill="#FFDB94" stroke="#45413C" stroke-linecap="round" stroke-linejoin="round"/>
<path d="M253.347 135.632C255.801 135.632 257.791 133.642 257.791 131.187C257.791 128.733 255.801 126.743 253.347 126.743C250.892 126.743 248.902 128.733 248.902 131.187C248.902 133.642 250.892 135.632 253.347 135.632Z" fill="#FFBE3D"/>
<path d="M214.804 135.632C217.259 135.632 219.249 133.642 219.249 131.187C219.249 128.733 217.259 126.743 214.804 126.743C212.349 126.743 210.36 128.733 210.36 131.187C210.36 133.642 212.349 135.632 214.804 135.632Z" fill="#FFBE3D"/>
<path d="M218.048 120.808C218.994 119.862 220.278 119.33 221.616 119.33C222.953 119.33 224.237 119.862 225.184 120.808" stroke="#45413C" stroke-linecap="round" stroke-linejoin="round"/>
<path d="M250.108 120.808C249.162 119.862 247.879 119.33 246.541 119.33C245.202 119.33 243.919 119.862 242.972 120.808" stroke="#45413C" stroke-linecap="round" stroke-linejoin="round"/>
<path d="M225.184 141.56C227.749 143.486 230.87 144.525 234.078 144.525C237.286 144.525 240.406 143.486 242.972 141.56" stroke="#45413C" stroke-linecap="round" stroke-linejoin="round"/>
<path d="M323.64 221.662L318.541 173.163C317.965 167.702 315.348 162.66 311.214 159.046C307.081 155.43 301.734 153.51 296.245 153.668" stroke="black" stroke-linecap="round" stroke-linejoin="round"/>
<path d="M279.21 146.48H292.977C293.843 146.48 294.675 146.824 295.288 147.438C295.901 148.051 296.245 148.882 296.245 149.749V156.287C296.245 157.154 295.901 157.986 295.288 158.598C294.675 159.211 293.843 159.556 292.977 159.556H279.21C277.586 159.398 276.079 158.641 274.982 157.432C273.885 156.223 273.277 154.65 273.277 153.018C273.277 151.386 273.885 149.813 274.982 148.605C276.079 147.396 277.586 146.639 279.21 146.48Z" fill="#FF9900" stroke="#45413C" stroke-linecap="round" stroke-linejoin="round"/>
<path d="M144.516 221.662L149.672 173.163C150.246 167.704 152.862 162.663 156.993 159.048C161.125 155.433 166.469 153.512 171.957 153.668" stroke="black" stroke-linecap="round" stroke-linejoin="round"/>
<path d="M189.029 146.48H175.262C174.395 146.48 173.563 146.824 172.95 147.438C172.337 148.051 171.993 148.882 171.993 149.749V156.287C171.993 157.154 172.337 157.986 172.95 158.598C173.563 159.211 174.395 159.556 175.262 159.556H189.029C190.653 159.398 192.16 158.641 193.257 157.432C194.354 156.223 194.961 154.65 194.961 153.018C194.961 151.386 194.354 149.813 193.257 148.605C192.16 147.396 190.653 146.639 189.029 146.48Z" fill="#FF9900" stroke="#45413C" stroke-linecap="round" stroke-linejoin="round"/>
<path d="M302.716 381.827H165.435C161.824 381.827 158.897 384.754 158.897 388.365V398.172C158.897 401.783 161.824 404.71 165.435 404.71H302.716C306.327 404.71 309.254 401.783 309.254 398.172V388.365C309.254 384.754 306.327 381.827 302.716 381.827Z" fill="#BF8256" stroke="#45413C" stroke-linecap="round" stroke-linejoin="round"/>
<path d="M147.749 244.539L161.949 289.088C162.382 290.388 163.212 291.518 164.322 292.32C165.432 293.123 166.767 293.556 168.136 293.559H300.005C301.374 293.556 302.708 293.123 303.818 292.32C304.929 291.518 305.759 290.388 306.192 289.088L320.407 244.539H147.749Z" fill="#ADC4D9"/>
<path d="M313.116 267.422L320.407 244.539H147.749L155.04 267.422H313.116Z" fill="#8CA4B8"/>
<path d="M147.749 244.539L161.949 289.088C162.382 290.388 163.212 291.518 164.322 292.32C165.432 293.123 166.767 293.556 168.136 293.559H300.005C301.374 293.556 302.708 293.123 303.818 292.32C304.929 291.518 305.759 290.388 306.192 289.088L320.407 244.539H147.749Z" stroke="#45413C" stroke-linecap="round" stroke-linejoin="round"/>
<path d="M276.57 365.482H191.607C189.873 365.482 188.21 366.171 186.984 367.397C185.758 368.623 185.069 370.286 185.069 372.02V381.816H283.108V372.02C283.108 371.161 282.94 370.311 282.611 369.517C282.283 368.724 281.802 368.003 281.194 367.395C280.587 366.788 279.866 366.307 279.073 365.978C278.279 365.65 277.428 365.481 276.57 365.482Z" fill="#BF8256" stroke="#45413C" stroke-linecap="round" stroke-linejoin="round"/>
<path d="M323.64 221.662H144.516C142.993 221.629 141.479 221.902 140.064 222.461C138.647 223.022 137.357 223.859 136.269 224.924C135.181 225.99 134.316 227.262 133.726 228.666C133.136 230.07 132.831 231.577 132.831 233.101C132.831 234.624 133.136 236.131 133.726 237.535C134.316 238.939 135.181 240.211 136.269 241.276C137.357 242.341 138.647 243.179 140.064 243.739C141.479 244.3 142.993 244.572 144.516 244.539H323.64C325.163 244.572 326.677 244.3 328.092 243.739C329.509 243.179 330.799 242.341 331.887 241.276C332.975 240.211 333.84 238.939 334.43 237.535C335.02 236.131 335.325 234.624 335.325 233.101C335.325 231.577 335.02 230.07 334.43 228.666C333.84 227.262 332.975 225.99 331.887 224.924C330.799 223.859 329.509 223.022 328.092 222.461C326.677 221.902 325.163 221.629 323.64 221.662Z" fill="#BF8256"/>
<path d="M144.516 231.468H323.64C325.846 231.454 328.012 232.059 329.892 233.215C331.771 234.371 333.289 236.031 334.272 238.007C335.019 236.48 335.407 234.803 335.406 233.103C335.385 231.579 335.065 230.074 334.462 228.674C333.859 227.274 332.987 226.007 331.894 224.944C330.801 223.882 329.51 223.045 328.093 222.482C326.678 221.919 325.164 221.639 323.64 221.662H144.516C142.992 221.639 141.478 221.919 140.063 222.482C138.646 223.045 137.354 223.882 136.262 224.944C135.169 226.007 134.297 227.274 133.694 228.674C133.091 230.073 132.77 231.579 132.749 233.103C132.749 234.803 133.137 236.48 133.884 238.007C134.867 236.031 136.384 234.371 138.263 233.214C140.143 232.059 142.31 231.454 144.516 231.468Z" fill="#E09F7E"/>
<path d="M323.64 221.662H144.516C142.993 221.629 141.479 221.902 140.064 222.461C138.647 223.022 137.357 223.859 136.269 224.924C135.181 225.99 134.316 227.262 133.726 228.666C133.136 230.07 132.831 231.577 132.831 233.101C132.831 234.624 133.136 236.131 133.726 237.535C134.316 238.939 135.181 240.211 136.269 241.276C137.357 242.341 138.647 243.179 140.064 243.739C141.479 244.3 142.993 244.572 144.516 244.539H323.64C325.163 244.572 326.677 244.3 328.092 243.739C329.509 243.179 330.799 242.341 331.887 241.276C332.975 240.211 333.84 238.939 334.43 237.535C335.02 236.131 335.325 234.624 335.325 233.101C335.325 231.577 335.02 230.07 334.43 228.666C333.84 227.262 332.975 225.99 331.887 224.924C330.799 223.859 329.509 223.022 328.092 222.461C326.677 221.902 325.163 221.629 323.64 221.662Z" stroke="#45413C" stroke-linecap="round" stroke-linejoin="round"/>
<path d="M206.586 290.305L213.449 365.482H254.703L261.57 290.305H206.586Z" fill="#BF8256"/>
<path d="M258.884 319.721L261.57 290.305H206.586L209.272 319.721C217.096 323.137 225.541 324.901 234.078 324.901C242.615 324.901 251.06 323.137 258.884 319.721Z" fill="#915E3A"/>
<path d="M206.586 290.305L213.449 365.482H254.703L261.57 290.305H206.586Z" stroke="#45413C" stroke-linecap="round" stroke-linejoin="round"/>
<path d="M234.078 309.914C252.129 309.914 266.763 295.281 266.763 277.229C266.763 259.178 252.129 244.545 234.078 244.545C216.027 244.545 201.393 259.178 201.393 277.229C201.393 295.281 216.027 309.914 234.078 309.914Z" fill="#17003C" stroke="#45413C" stroke-linecap="round" stroke-linejoin="round"/>
<path d="M234.078 293.574C243.105 293.574 250.423 286.257 250.423 277.229C250.423 268.202 243.105 260.884 234.078 260.884C225.051 260.884 217.733 268.202 217.733 277.229C217.733 286.257 225.051 293.574 234.078 293.574Z" fill="#FF9900" stroke="#45413C" stroke-linecap="round" stroke-linejoin="round"/>
</svg>
